<?xml version="1.0" encoding="utf-8"?>
<!-- Generator: Adobe Illustrator 23.0.1, SVG Export Plug-In . SVG Version: 6.00 Build 0)  -->
<svg version="1.1" id="partes" xmlns="http://www.w3.org/2000/svg" xmlns:xlink="http://www.w3.org/1999/xlink" x="0px" y="0px"
	 viewBox="0 0 800 800" style="enable-background:new 0 0 800 800;" xml:space="preserve">
<style type="text/css">
	.st0{opacity:0.14;}
	.st1{clip-path:url(#SVGID_2_);}
	.st2{clip-path:url(#SVGID_4_);}
	.st3{clip-path:url(#SVGID_6_);fill:#41B19C;}
	.st4{clip-path:url(#SVGID_8_);fill:#2D9D88;}
	.st5{fill:#2780B9;}
</style>
<g id="sombras">
	<g class="st0">
		<defs>
			
				<rect id="SVGID_1_" x="353.13" y="149.09" transform="matrix(0.7616 0.6481 -0.6481 0.7616 402.0352 -172.0545)" class="st0" width="163.43" height="622.52"/>
		</defs>
		<clipPath id="SVGID_2_">
			<use xlink:href="#SVGID_1_"  style="overflow:visible;"/>
		</clipPath>
		<path class="st1" d="M557.22,191.61c-21.37-18.18-49.32-31.94-60.18-19.18l0,0c-6.88,8.09-2.14,21.24,7.68,34.42l-25.37,29.82
			c-19.45-3.13-40.04,3.6-53.71,19.67L276.09,432.11c-10.09,11.85-14.95,26.92-13.7,42.43c1.05,13.09,6.39,25.14,15.14,34.64
			l-72.32,84.99c-2.58,3.03-2.22,7.59,0.82,10.17c1.35,1.15,3,1.71,4.64,1.72c2.05,0.01,4.1-0.86,5.53-2.54l72.32-84.99
			c9.65,6.34,20.66,9.53,31.66,9.57c16.58,0.06,33.09-6.9,44.64-20.48l149.55-175.76c10.09-11.85,14.95-26.92,13.7-42.43
			c-0.38-4.75-1.39-9.35-2.86-13.76l25.31-29.75c2.67,1.4,5.29,2.61,7.81,3.62c6.17,2.47,11.12,3.44,15.07,3.45
			c6.34,0.02,10.13-2.41,12.37-5.04C596.65,235.19,578.59,209.8,557.22,191.61z M503.26,322.51l-3.7,4.35l-7.01,8.24l-12.64,14.85
			l-7.01,8.24l-13.95,16.39l-7.01,8.24l-6.32,7.43l-6.32,7.42l-7.01,8.24l-10.67,12.54l-7.01,8.24l-12.64,14.85l-7.02,8.25
			l-13.95,16.39l-7.01,8.24l-12.63,14.85l-7.01,8.24l-0.63,0.73c-15.66,18.4-43.38,20.64-61.79,4.97
			c-8.91-7.59-14.35-18.19-15.28-29.86c-0.94-11.67,2.72-23.01,10.31-31.93l91.91-108.01l57.64-67.74
			c7.59-8.92,18.19-14.34,29.86-15.28c1.26-0.1,2.52-0.15,3.76-0.14c10.33,0.04,20.21,3.68,28.16,10.45
			c8.92,7.59,14.35,18.19,15.28,29.86C514.5,302.26,510.85,313.59,503.26,322.51z M518.16,261.55c-2.94-4.34-6.43-8.33-10.53-11.81
			c-4.14-3.52-8.65-6.31-13.36-8.48l27.12-31.87l23.88,20.31L518.16,261.55z M574.54,238.5c-1.95,0.49-7.13-0.48-14.48-3.92
			l0.87-1.03c1.25-1.46,1.85-3.35,1.7-5.26c-0.16-1.91-1.06-3.68-2.52-4.92l-34.86-29.66c-3.03-2.58-7.59-2.21-10.17,0.82
			l-0.87,1.02c-4.57-6.71-6.36-11.67-6.19-13.67c3.73-0.94,19.44,3.46,39.72,20.72C568.02,219.86,574.87,234.65,574.54,238.5z"/>
	</g>
	<g class="st0">
		<defs>
			
				<rect id="SVGID_3_" x="228.67" y="43.17" transform="matrix(-0.7616 -0.6481 0.6481 -0.7616 317.0515 825.5018)" class="st0" width="163.43" height="622.52"/>
		</defs>
		<clipPath id="SVGID_4_">
			<use xlink:href="#SVGID_3_"  style="overflow:visible;"/>
		</clipPath>
		<path class="st2" d="M495.9,171.46c-2.24,2.64-4.03,6.76-3,13.02c0.65,3.9,2.39,8.62,5.82,14.32c1.4,2.33,3.02,4.72,4.82,7.13
			l-25.32,29.74c-4.59-0.74-9.29-1-14.04-0.62c-15.51,1.25-29.61,8.46-39.69,20.31L274.91,431.1
			c-11.56,13.58-15.79,30.99-13.07,47.34c1.8,10.85,6.71,21.21,14.51,29.73l-72.33,84.98c-1.43,1.68-1.96,3.84-1.62,5.86
			c0.27,1.62,1.09,3.16,2.44,4.31c3.04,2.59,7.59,2.22,10.17-0.82l72.33-84.98c10.79,7.12,23.53,10.46,36.62,9.41
			c15.51-1.25,29.61-8.46,39.69-20.31l149.58-175.73c13.68-16.07,17.03-37.47,10.83-56.17l25.38-29.82
			c14.58,7.59,28.32,10.17,35.21,2.08l0,0c10.86-12.77-7.19-38.16-28.55-56.34C534.71,172.46,506.77,158.7,495.9,171.46z
			 M465.37,249.57c11.67-0.94,23,2.72,31.92,10.31c7.95,6.77,13.13,15.94,14.82,26.13c0.2,1.23,0.36,2.48,0.46,3.74
			c0.94,11.67-2.72,23-10.31,31.92L444.6,389.4l-91.92,108c-7.59,8.92-18.19,14.34-29.87,15.28c-11.67,0.94-23-2.73-31.92-10.31
			c-18.4-15.66-20.63-43.38-4.97-61.79l0.62-0.74l22.99,19.57c2.28,1.93,5.69,1.66,7.63-0.62c1.94-2.27,1.66-5.69-0.61-7.63
			l-22.99-19.57l12.64-14.85l12.76,10.86c2.28,1.94,5.69,1.67,7.63-0.61c1.94-2.27,1.66-5.68-0.61-7.63l-12.76-10.86l13.95-16.39
			l22.98,19.56c2.28,1.94,5.69,1.66,7.63-0.61c1.94-2.27,1.67-5.68-0.61-7.63l-22.99-19.56l12.64-14.85l12.75,10.86
			c2.28,1.93,5.7,1.66,7.63-0.62c1.94-2.27,1.67-5.69-0.61-7.63l-12.76-10.86l10.67-12.54l22.99,19.56
			c2.27,1.94,5.69,1.66,7.63-0.62c1.93-2.27,1.66-5.69-0.61-7.62l-22.99-19.56l6.32-7.43l6.32-7.42l12.76,10.86
			c2.27,1.93,5.69,1.66,7.63-0.61c1.94-2.27,1.67-5.69-0.61-7.63l-12.76-10.86l13.95-16.39l22.98,19.56
			c2.28,1.94,5.69,1.67,7.63-0.61c1.93-2.27,1.67-5.69-0.61-7.63l-22.98-19.56l12.64-14.85l12.76,10.86
			c2.28,1.94,5.69,1.66,7.63-0.61c1.94-2.27,1.66-5.68-0.61-7.63l-12.76-10.86l3.7-4.35C443.09,255.93,453.69,250.51,465.37,249.57z
			 M520.4,208.54l23.86,20.32l-27.12,31.87c-2.9-4.3-6.37-8.32-10.51-11.84c-4.1-3.49-8.59-6.3-13.35-8.51L520.4,208.54z
			 M546.75,201.77c20.28,17.26,27.13,32.06,26.8,35.9c-1.94,0.49-7.13-0.48-14.48-3.92l0.87-1.02c2.58-3.03,2.22-7.59-0.82-10.17
			l-34.86-29.67c-1.46-1.24-3.35-1.85-5.26-1.7c-1.91,0.15-3.68,1.05-4.92,2.52l-0.87,1.02c-4.57-6.71-6.36-11.67-6.18-13.67
			C510.77,180.1,526.47,184.5,546.75,201.77z"/>
	</g>
	<g class="st0">
		<g>
			<path d="M418.82,72.12c0-1.38,0.1-2.78,0.31-4.18c2.45-16.61,18.91-28.23,36.74-25.94c193.89,24.91,340.12,181.41,340.12,364
				c0,0.01,0-0.01,0,0.01c0,89.05-34.63,174.96-97.52,241.9c-62.28,66.3-147.9,109.59-241.08,121.91
				c-17.82,2.35-34.32-9.2-36.85-25.8c-2.52-16.61,9.87-31.97,27.69-34.33C609.32,688.4,730.8,557.85,730.8,406.01
				c0.01-152.44-122.02-283.06-283.84-303.85C430.64,100.07,418.82,87.05,418.82,72.12z"/>
		</g>
		<g>
			<path d="M395.57,72.12c0-1.38-0.1-2.78-0.31-4.18C392.8,51.32,376.35,39.71,358.52,42C164.63,66.91,18.4,223.41,18.4,406
				c0,0.01,0-0.01,0,0.01c0,89.05,34.63,174.96,97.52,241.9C178.2,714.21,263.82,757.5,357,769.82c17.82,2.35,34.32-9.2,36.85-25.8
				c2.52-16.61-9.87-31.97-27.69-34.33C205.07,688.4,83.59,557.85,83.59,406.01c-0.01-152.44,122.02-283.06,283.84-303.85
				C383.74,100.07,395.57,87.05,395.57,72.12z"/>
		</g>
	</g>
</g>
<g id="jer._der">
	<defs>
		
			<rect id="SVGID_5_" x="350.79" y="142.83" transform="matrix(0.7616 0.6481 -0.6481 0.7616 397.424 -172.029)" width="163.43" height="622.52"/>
	</defs>
	<clipPath id="SVGID_6_">
		<use xlink:href="#SVGID_5_"  style="overflow:visible;"/>
	</clipPath>
	<path class="st3" d="M554.88,185.36c-21.37-18.18-49.32-31.94-60.18-19.18v0c-6.88,8.09-2.14,21.24,7.68,34.42l-25.37,29.82
		c-19.45-3.13-40.04,3.6-53.71,19.67L273.75,425.85c-10.09,11.85-14.95,26.92-13.7,42.43c1.05,13.09,6.39,25.14,15.14,34.64
		l-72.32,84.99c-2.58,3.03-2.22,7.59,0.82,10.17c1.35,1.15,3,1.71,4.64,1.72c2.05,0.01,4.1-0.86,5.53-2.54l72.32-84.99
		c9.65,6.34,20.66,9.53,31.66,9.57c16.58,0.06,33.09-6.9,44.64-20.48l149.55-175.76c10.09-11.85,14.95-26.92,13.7-42.43
		c-0.38-4.75-1.39-9.35-2.86-13.76l25.31-29.75c2.67,1.4,5.29,2.61,7.81,3.62c6.17,2.47,11.12,3.44,15.07,3.45
		c6.34,0.02,10.13-2.41,12.37-5.04C594.31,228.93,576.25,203.55,554.88,185.36z M500.92,316.26l-3.7,4.35l-7.01,8.24l-12.64,14.85
		l-7.01,8.24l-13.95,16.39l-7.01,8.24l-6.32,7.43l-6.32,7.42l-7.01,8.24l-10.67,12.54l-7.01,8.24l-12.64,14.85l-7.02,8.25
		l-13.95,16.39l-7.01,8.24l-12.63,14.85l-7.01,8.24l-0.63,0.73c-15.66,18.4-43.38,20.64-61.79,4.97
		c-8.91-7.59-14.35-18.19-15.28-29.86c-0.94-11.67,2.72-23.01,10.31-31.93l91.91-108.01l57.64-67.74
		c7.59-8.92,18.19-14.34,29.86-15.28c1.26-0.1,2.52-0.15,3.76-0.14c10.33,0.04,20.21,3.68,28.16,10.45
		c8.92,7.59,14.35,18.19,15.28,29.86C512.16,296,508.51,307.34,500.92,316.26z M515.82,255.3c-2.94-4.34-6.43-8.33-10.53-11.81
		c-4.14-3.52-8.65-6.31-13.36-8.48l27.12-31.87l23.88,20.31L515.82,255.3z M572.2,232.25c-1.95,0.49-7.13-0.48-14.48-3.92l0.87-1.03
		c1.25-1.46,1.85-3.35,1.7-5.26c-0.16-1.91-1.06-3.68-2.52-4.92l-34.86-29.66c-3.03-2.58-7.59-2.21-10.17,0.82l-0.87,1.02
		c-4.57-6.71-6.36-11.67-6.19-13.67c3.73-0.94,19.44,3.46,39.72,20.72C565.68,213.61,572.53,228.4,572.2,232.25z"/>
</g>
<g id="jer._izq">
	<defs>
		
			<rect id="SVGID_7_" x="226.33" y="36.91" transform="matrix(-0.7616 -0.6481 0.6481 -0.7616 316.9823 812.9685)" width="163.43" height="622.52"/>
	</defs>
	<clipPath id="SVGID_8_">
		<use xlink:href="#SVGID_7_"  style="overflow:visible;"/>
	</clipPath>
	<path class="st4" d="M493.56,165.21c-2.24,2.64-4.03,6.76-3,13.02c0.65,3.9,2.39,8.62,5.82,14.32c1.4,2.33,3.02,4.72,4.82,7.13
		l-25.32,29.74c-4.59-0.74-9.29-1-14.04-0.62c-15.51,1.25-29.61,8.46-39.69,20.31L272.57,424.85
		c-11.56,13.58-15.79,30.99-13.07,47.34c1.8,10.85,6.71,21.21,14.51,29.73l-72.33,84.98c-1.43,1.68-1.96,3.84-1.62,5.86
		c0.27,1.62,1.09,3.16,2.44,4.31c3.04,2.59,7.59,2.22,10.17-0.82l72.33-84.98c10.79,7.12,23.53,10.46,36.62,9.41
		c15.51-1.25,29.61-8.46,39.69-20.31l149.58-175.73c13.68-16.07,17.03-37.47,10.83-56.17l25.38-29.82
		c14.58,7.59,28.32,10.17,35.21,2.08l0,0c10.86-12.77-7.19-38.16-28.55-56.34C532.37,166.21,504.43,152.44,493.56,165.21z
		 M463.03,243.31c11.67-0.94,23,2.72,31.92,10.31c7.95,6.77,13.13,15.94,14.82,26.13c0.2,1.23,0.36,2.48,0.46,3.74
		c0.94,11.67-2.72,23-10.31,31.92l-57.65,67.74l-91.92,108c-7.59,8.92-18.19,14.34-29.87,15.28c-11.67,0.94-23-2.73-31.92-10.31
		c-18.4-15.66-20.63-43.38-4.97-61.79l0.62-0.74l22.99,19.57c2.28,1.93,5.69,1.66,7.63-0.62c1.94-2.27,1.66-5.69-0.61-7.63
		l-22.99-19.57l12.64-14.85l12.76,10.86c2.28,1.94,5.69,1.67,7.63-0.61c1.94-2.27,1.66-5.68-0.61-7.63l-12.76-10.86l13.95-16.39
		l22.98,19.56c2.28,1.94,5.69,1.66,7.63-0.61c1.94-2.27,1.67-5.68-0.61-7.63l-22.99-19.56l12.64-14.85l12.75,10.86
		c2.28,1.93,5.7,1.66,7.63-0.62c1.94-2.27,1.67-5.69-0.61-7.63l-12.76-10.86L362.17,342l22.99,19.56c2.27,1.94,5.69,1.66,7.63-0.62
		c1.93-2.27,1.66-5.69-0.61-7.62l-22.99-19.56l6.32-7.43l6.32-7.42l12.76,10.86c2.27,1.93,5.69,1.66,7.63-0.61
		c1.94-2.27,1.67-5.69-0.61-7.63l-12.76-10.86l13.95-16.39l22.98,19.56c2.28,1.94,5.69,1.67,7.63-0.61
		c1.93-2.27,1.67-5.69-0.61-7.63l-22.98-19.56l12.64-14.85l12.76,10.86c2.28,1.94,5.69,1.66,7.63-0.61
		c1.94-2.27,1.66-5.68-0.61-7.63l-12.76-10.86l3.7-4.35C440.75,249.68,451.35,244.25,463.03,243.31z M518.06,202.28l23.86,20.32
		l-27.12,31.87c-2.9-4.3-6.37-8.32-10.51-11.84c-4.1-3.49-8.59-6.3-13.35-8.51L518.06,202.28z M544.41,195.51
		c20.28,17.26,27.13,32.06,26.8,35.9c-1.94,0.49-7.13-0.48-14.48-3.92l0.87-1.02c2.58-3.03,2.22-7.59-0.82-10.17l-34.86-29.67
		c-1.46-1.24-3.35-1.85-5.26-1.7c-1.91,0.15-3.68,1.05-4.92,2.52l-0.87,1.02c-4.57-6.71-6.36-11.67-6.18-13.67
		C508.43,173.85,524.13,178.25,544.41,195.51z"/>
</g>
<g id="redondas">
	<g>
		<path class="st5" d="M409.93,65.28c0-1.38,0.1-2.78,0.31-4.18c2.45-16.61,18.91-28.23,36.74-25.94
			c193.89,24.91,340.12,181.41,340.12,364c0,0.01,0-0.01,0,0.01c0,89.05-34.63,174.96-97.52,241.9
			c-62.28,66.3-147.9,109.59-241.08,121.91c-17.82,2.35-34.32-9.2-36.85-25.8c-2.52-16.61,9.87-31.97,27.69-34.33
			c161.09-21.29,282.57-151.84,282.57-303.68c0.01-152.44-122.02-283.06-283.84-303.85C421.76,93.23,409.93,80.21,409.93,65.28z"/>
	</g>
	<g>
		<path class="st5" d="M386.68,65.28c0-1.38-0.1-2.78-0.31-4.18c-2.45-16.61-18.91-28.23-36.74-25.94
			C155.74,60.07,9.51,216.58,9.51,399.17c0,0.01,0-0.01,0,0.01c0,89.05,34.63,174.96,97.52,241.9
			c62.28,66.3,147.9,109.59,241.08,121.91c17.82,2.35,34.32-9.2,36.85-25.8c2.52-16.61-9.87-31.97-27.69-34.33
			C196.18,681.56,74.7,551.01,74.7,399.17C74.69,246.74,196.72,116.11,358.53,95.33C374.86,93.23,386.68,80.21,386.68,65.28z"/>
	</g>
</g>
</svg>
